<?xml version="1.0" standalone="no"?>
<!DOCTYPE svg PUBLIC "-//W3C//DTD SVG 20010904//EN"
 "http://www.w3.org/TR/2001/REC-SVG-20010904/DTD/svg10.dtd">
<svg version="1.0" xmlns="http://www.w3.org/2000/svg"
 width="512.000000pt" height="512.000000pt" viewBox="0 0 512.000000 512.000000"
 preserveAspectRatio="xMidYMid meet">
<metadata>
Created by potrace 1.14, written by Peter Selinger 2001-2017
</metadata>
<g transform="translate(0.000000,512.000000) scale(0.100000,-0.100000)"
fill="#000000" stroke="none">
<path d="M2408 5115 c-2 -1 -29 -5 -61 -9 -31 -3 -67 -8 -80 -11 -12 -3 -33
-7 -47 -9 -386 -71 -765 -299 -1020 -611 -180 -221 -300 -470 -358 -746 -31
-143 -35 -181 -36 -347 -3 -277 40 -495 154 -782 136 -341 322 -625 926 -1410
83 -107 222 -292 311 -411 162 -217 191 -247 273 -276 90 -32 218 -4 288 64
16 15 96 118 177 228 82 110 244 324 360 475 449 583 602 806 758 1100 80 151
157 344 200 500 17 59 19 73 44 220 17 103 22 363 9 470 -86 722 -607 1326
-1294 1500 -64 17 -139 33 -167 36 -27 4 -54 9 -59 12 -10 5 -372 13 -378 7z
m307 -718 c30 -7 94 -18 100 -18 3 0 42 -13 87 -30 91 -33 177 -77 251 -126
51 -35 103 -43 125 -21 10 10 25 0 72 -48 59 -61 60 -62 45 -90 -18 -35 -14
-49 34 -122 143 -220 201 -473 166 -732 -18 -140 -91 -324 -177 -447 -167
-240 -439 -403 -730 -439 -88 -11 -265 -5 -328 11 -3 1 -21 5 -40 9 -103 23
-258 92 -359 160 -59 40 -76 43 -108 21 -21 -15 -25 -12 -83 45 -49 48 -59 64
-50 75 26 31 20 62 -26 131 -174 265 -224 581 -137 884 9 30 19 62 23 70 4 8
22 47 40 85 48 104 113 196 199 283 166 167 381 273 606 301 60 8 253 6 290
-2z"/>
<path d="M2715 4110 c-12 -4 -26 -14 -32 -21 -17 -21 -93 -257 -93 -290 0 -59
77 -92 119 -50 20 20 104 259 104 298 0 28 -35 68 -60 70 -10 0 -27 -3 -38 -7z"/>
<path d="M2351 4022 c-25 -20 -81 -172 -81 -221 0 -62 76 -95 119 -52 11 11
34 63 51 117 26 82 29 102 20 125 -18 43 -75 59 -109 31z"/>
<path d="M2068 3628 c-15 -5 -30 -19 -34 -31 -7 -22 -7 -117 0 -154 3 -11 7
-56 11 -99 4 -43 8 -90 10 -104 2 -14 6 -56 10 -95 3 -38 8 -86 10 -105 3 -19
7 -55 9 -80 3 -25 8 -72 12 -105 10 -96 46 -145 119 -161 22 -5 160 -9 306 -9
246 1 269 3 300 21 66 39 79 74 95 254 3 41 8 78 10 81 2 4 21 -2 43 -13 95
-47 224 -10 285 82 26 40 49 119 41 142 -2 7 -6 28 -9 46 -17 119 -160 201
-289 167 l-28 -7 3 67 c3 61 1 69 -23 89 -26 23 -26 23 -440 23 -228 0 -426
-4 -441 -9z m1030 -312 c29 -10 52 -54 45 -88 -15 -80 -120 -94 -156 -20 -21
41 0 94 43 110 27 10 33 10 68 -2z"/>
<path d="M2043 138 c-50 -24 -44 -118 8 -131 13 -4 247 -7 519 -7 374 1 499 4
511 13 27 21 37 49 28 80 -17 58 0 56 -544 56 -331 0 -507 -4 -522 -11z"/>
</g>
</svg>
